<?xml version="1.0" encoding="utf-8"?>
<!-- Svg Vector Icons : http://www.onlinewebfonts.com/icon -->
<!DOCTYPE svg PUBLIC "-//W3C//DTD SVG 1.1//EN" "http://www.w3.org/Graphics/SVG/1.1/DTD/svg11.dtd">
<svg version="1.1" xmlns="http://www.w3.org/2000/svg" xmlns:xlink="http://www.w3.org/1999/xlink" x="0px" y="0px" viewBox="0 0 256 256" enable-background="new 0 0 256 256" xml:space="preserve">
<metadata> Svg Vector Icons : http://www.onlinewebfonts.com/icon </metadata>
<g><g><path fill="#000000" d="M165.6,37.2c7,0,13.3-3.5,17.7-6.2v50.5c-4.3,2.7-10.6,6.2-17.7,6.2c-7,0-13.3-1.9-17.7-4.6c-4.3-2.7-10.6-4.6-17.7-4.6c-7,0-13.3,3.3-17.7,6V34c4.3-2.7,10.6-6,17.7-6c7,0,13.3,1.9,17.7,4.6C152.2,35.3,158.6,37.2,165.6,37.2"/><path fill="#000000" d="M101.6,23.9c3.6,0,6.4,3.8,6.4,8.5v127.3H95.1V32.4C95.1,27.7,98,23.9,101.6,23.9"/><path fill="#000000" d="M242.6,67.9l-36.1,12.7l3.3,10.3l25.4-9v118.4L163.7,219l-75.3-20.2L20.8,215V99.5L47,81.8l-7.2-8.1L10,93.4l0,0l0,0v134h10.8l0,0l67.5-16.7l75.3,21.3l82.4-23.7h0V76.8L242.6,67.9z"/><path fill="#000000" d="M134.2,164.1c0,9.2-14.2,16.6-31.6,16.6s-31.6-7.4-31.6-16.6c0-3.7,2.3-7.1,6.2-9.8c-0.3,0.7-0.4,1.4-0.4,2.2c0,6.8,11.2,12.3,25,12.3s25-5.5,25-12.3c0-1.3-0.4-2.6-1.2-3.7C130.9,155.7,134.2,159.7,134.2,164.1z"/></g></g>
</svg>